<svg width="56" height="56" viewBox="0 0 56 56" fill="none" xmlns="http://www.w3.org/2000/svg">
<path fill-rule="evenodd" clip-rule="evenodd" d="M28 47C38.4934 47 47 38.4934 47 28C47 17.5066 38.4934 9 28 9C17.5066 9 9 17.5066 9 28C9 38.4934 17.5066 47 28 47ZM28 48C39.0457 48 48 39.0457 48 28C48 16.9543 39.0457 8 28 8C16.9543 8 8 16.9543 8 28C8 39.0457 16.9543 48 28 48Z" fill="#0045E6"/>
<path fill-rule="evenodd" clip-rule="evenodd" d="M28 40C34.6274 40 40 34.6274 40 28C40 21.3726 34.6274 16 28 16C21.3726 16 16 21.3726 16 28C16 34.6274 21.3726 40 28 40ZM28 41C35.1797 41 41 35.1797 41 28C41 20.8203 35.1797 15 28 15C20.8203 15 15 20.8203 15 28C15 35.1797 20.8203 41 28 41Z" fill="#0045E6"/>
<path fill-rule="evenodd" clip-rule="evenodd" d="M28.5 8.5V15.5H27.5V8.5H28.5ZM28.5 40.5V47.5H27.5V40.5H28.5Z" fill="#0045E6"/>
<path fill-rule="evenodd" clip-rule="evenodd" d="M45.1375 18.683L39.2498 22.0823L38.7498 21.2163L44.6375 17.817L45.1375 18.683ZM17.2498 34.784L11.3625 38.183L10.8625 37.317L16.7498 33.918L17.2498 34.784Z" fill="#0045E6"/>
<path fill-rule="evenodd" clip-rule="evenodd" d="M44.6377 38.183L38.25 34.4951L38.75 33.629L45.1377 37.317L44.6377 38.183ZM16.75 22.082L10.8627 18.683L11.3627 17.817L17.25 21.216L16.75 22.082Z" fill="#0045E6"/>
<path fill-rule="evenodd" clip-rule="evenodd" d="M28 23.5C25.5147 23.5 23.5 25.5147 23.5 28C23.5 29.6652 24.0397 30.7331 24.6148 31.408C25.04 31.9069 25.5078 32.4758 25.8678 33.0966C26.2291 33.7194 26.5 34.4244 26.5 35.197V36H25.5V35.197C25.5 34.6616 25.3123 34.132 25.0028 33.5983C24.6921 33.0627 24.277 32.5533 23.8537 32.0566C23.1255 31.2021 22.5 29.9046 22.5 28C22.5 24.9624 24.9624 22.5 28 22.5C31.0376 22.5 33.5 24.9624 33.5 28C33.5 29.9046 32.8745 31.2021 32.1463 32.0566C31.723 32.5533 31.3079 33.0627 30.9972 33.5983C30.6877 34.132 30.5 34.6616 30.5 35.197V36H29.5V35.197C29.5 34.4244 29.7709 33.7194 30.1322 33.0966C30.4922 32.4758 30.96 31.9069 31.3852 31.408C31.9603 30.7331 32.5 29.6652 32.5 28C32.5 25.5147 30.4853 23.5 28 23.5Z" fill="#0045E6"/>
<path fill-rule="evenodd" clip-rule="evenodd" d="M30.3536 26.8536L27.5 29.7071L25.6464 27.8536L26.3536 27.1464L27.5 28.2929L29.6464 26.1464L30.3536 26.8536Z" fill="#0045E6"/>
<path fill-rule="evenodd" clip-rule="evenodd" d="M28.5 18V21H27.5V18H28.5Z" fill="#0045E6"/>
<path fill-rule="evenodd" clip-rule="evenodd" d="M36.9105 23.4331L34.3124 24.9331L33.8124 24.067L36.4105 22.567L36.9105 23.4331Z" fill="#0045E6"/>
<path fill-rule="evenodd" clip-rule="evenodd" d="M22.1879 31.933L19.5898 33.433L19.0898 32.5669L21.6879 31.0669L22.1879 31.933Z" fill="#0045E6"/>
<path fill-rule="evenodd" clip-rule="evenodd" d="M19.59 22.5667L22.1881 24.0667L21.6881 24.9328L19.09 23.4328L19.59 22.5667Z" fill="#0045E6"/>
<path fill-rule="evenodd" clip-rule="evenodd" d="M34.3122 31.067L36.9102 32.567L36.4102 33.433L33.8122 31.933L34.3122 31.067Z" fill="#0045E6"/>
</svg>
