<svg width="56" height="56" viewBox="0 0 56 56" fill="none" xmlns="http://www.w3.org/2000/svg">
<path fill-rule="evenodd" clip-rule="evenodd" d="M27.9998 8.5C17.6096 8.5 9.11734 16.6263 8.53202 26.8699L11.6706 24.1237L12.3291 24.8763L7.95279 28.7055L4.12354 24.3293L4.87611 23.6707L7.53947 26.7146C8.2029 15.9916 17.1097 7.5 27.9998 7.5C39.3217 7.5 48.4998 16.6782 48.4998 28C48.4998 37.0607 42.628 44.4122 34.4997 47H46.7927L43.6463 43.8536L44.3534 43.1464L48.7069 47.5L44.3534 51.8536L43.6463 51.1464L46.7927 48H7.99982V47H27.9998C38.7861 47 47.4998 38.7531 47.4998 28C47.4998 17.2304 38.7694 8.5 27.9998 8.5Z" fill="#0045E6"/>
<path fill-rule="evenodd" clip-rule="evenodd" d="M13.1805 40.1748C16.7577 44.3533 22.0694 47 27.9998 47L27.9998 48C21.765 48 16.1799 45.216 12.4208 40.8252L13.1805 40.1748Z" fill="#0045E6"/>
<path fill-rule="evenodd" clip-rule="evenodd" d="M27.9998 33.8671L17.9998 28.6497V33.9271L27.9998 39.7903V33.8671ZM16.9998 34.5V27L28.4998 33L38.9998 27V34.5L28.4998 41.2427L16.9998 34.5ZM28.9998 39.7332V33.866L37.9998 28.7232V33.9537L28.9998 39.7332Z" fill="#0045E6"/>
<path fill-rule="evenodd" clip-rule="evenodd" d="M37.1438 20.3063L39.2455 19.2917L28.0082 14.1052L24.9997 15.5493L35.8013 21.0581L37.1438 20.3063ZM34.7522 21.6456L23.8658 16.0936L21.8459 17.0631L32.6808 22.8056L34.7522 21.6456ZM31.6424 23.3871L20.7253 17.601L19.0327 18.4135L16.7647 19.3519L28.468 25.4203L30.8636 23.8232L31.6424 23.3871ZM27.9998 26.304L15.9998 20.0817V26.3989L27.9998 32.7746V26.304ZM14.9998 27V19L18.6248 17.5L27.9999 13L40.9998 19V27L37.3748 28.75L35.8123 29.625L34.4998 30.5L32.6873 31.5L31.1248 32.5565L28.4998 34.1726L14.9998 27ZM28.9998 32.6905L30.5824 31.7161L32.1647 30.6463L32.1873 30.6338V24.2281L31.3861 24.6768L28.9998 26.2676V32.6905ZM33.1873 23.6681V30.082L33.98 29.6447L35.2899 28.7714L35.3123 28.7589V22.4781L33.1873 23.6681ZM36.3123 21.9181V28.1989L36.9127 27.8627L39.9998 26.3723V20.038L37.6059 21.1937L36.3123 21.9181Z" fill="#0045E6"/>
</svg>
