<svg width="56" height="56" viewBox="0 0 56 56" fill="none" xmlns="http://www.w3.org/2000/svg">
<path fill-rule="evenodd" clip-rule="evenodd" d="M12.5 11C10.567 11 9 12.567 9 14.5L9 42.5C9 44.433 10.567 46 12.5 46H41C42.933 46 44.5 44.433 44.5 42.5V18.7857L42.3448 20.8383L41.6552 20.1141L45 16.9286L48.3448 20.1141L47.6552 20.8383L45.5 18.7857V42.5C45.5 44.9853 43.4853 47 41 47H12.5C10.0147 47 8 44.9853 8 42.5L8 14.5C8 12.0147 10.0147 10 12.5 10L29 10V11L12.5 11ZM23.5232 37.8494L29.5232 18.8494L30.4768 19.1506L24.4768 38.1506L23.5232 37.8494ZM14.3536 27.9393L20.6464 21.6464L21.3536 22.3536L15.0607 28.6465C14.8654 28.8417 14.8654 29.1583 15.0607 29.3536L21.3536 35.6464L20.6464 36.3536L14.3536 30.0607C13.7678 29.4749 13.7678 28.5251 14.3536 27.9393ZM38.9393 28.6465L32.6464 22.3536L33.3536 21.6464L39.6464 27.9393C40.2322 28.5251 40.2322 29.4749 39.6464 30.0607L33.3536 36.3536L32.6464 35.6464L38.9393 29.3536C39.1346 29.1583 39.1346 28.8417 38.9393 28.6465Z" fill="#0045E6"/>
</svg>
