<svg width="56" height="56" viewBox="0 0 56 56" fill="none" xmlns="http://www.w3.org/2000/svg">
<path fill-rule="evenodd" clip-rule="evenodd" d="M34.5 19.2929L39.8732 24.6661L39.1661 25.3732L35 21.2072V36H34V21.2072L29.8339 25.3732L29.1268 24.6661L34.5 19.2929Z" fill="#0045E6"/>
<path fill-rule="evenodd" clip-rule="evenodd" d="M21.5196 36.7267L26.8928 31.3536L26.1857 30.6464L22.0196 34.8125V20.0196H21.0196V34.8125L16.8536 30.6464L16.1465 31.3536L21.5196 36.7267Z" fill="#0045E6"/>
<path fill-rule="evenodd" clip-rule="evenodd" d="M47 44V12C47 10.3431 45.6569 9 44 9L12 9C10.3431 9 9 10.3431 9 12L9 44C9 45.6569 10.3431 47 12 47H44C45.6569 47 47 45.6569 47 44ZM48 12C48 9.79086 46.2091 8 44 8L12 8C9.79086 8 8 9.79086 8 12L8 44C8 46.2091 9.79086 48 12 48H44C46.2091 48 48 46.2091 48 44V12Z" fill="#0045E6"/>
</svg>
