<svg width="56" height="56" viewBox="0 0 56 56" fill="none" xmlns="http://www.w3.org/2000/svg">
<path fill-rule="evenodd" clip-rule="evenodd" d="M35.9998 22H19.9998C19.4475 22 18.9998 22.4477 18.9998 23V39C18.9998 39.5523 19.4475 40 19.9998 40H35.9998C36.5521 40 36.9998 39.5523 36.9998 39V23C36.9998 22.4477 36.5521 22 35.9998 22ZM19.9998 21C18.8952 21 17.9998 21.8954 17.9998 23V39C17.9998 40.1046 18.8952 41 19.9998 41H35.9998C37.1044 41 37.9998 40.1046 37.9998 39V23C37.9998 21.8954 37.1044 21 35.9998 21H19.9998Z" fill="#0045E6"/>
<path fill-rule="evenodd" clip-rule="evenodd" d="M34.9998 24H20.9998V38H34.9998V24ZM19.9998 23V39H35.9998V23H19.9998Z" fill="#0045E6"/>
<path fill-rule="evenodd" clip-rule="evenodd" d="M28.9998 30H26.9998V32H28.9998V30ZM26.9998 29C26.4475 29 25.9998 29.4477 25.9998 30V32C25.9998 32.5523 26.4475 33 26.9998 33H28.9998C29.5521 33 29.9998 32.5523 29.9998 32V30C29.9998 29.4477 29.5521 29 28.9998 29H26.9998Z" fill="#0045E6"/>
<path fill-rule="evenodd" clip-rule="evenodd" d="M34.9998 21V16C34.9998 12.134 31.8658 9 27.9998 9C24.1338 9 20.9998 12.134 20.9998 16V21H34.9998ZM27.9998 8C23.5815 8 19.9998 11.5817 19.9998 16V22H35.9998V16C35.9998 11.5817 32.4181 8 27.9998 8Z" fill="#0045E6"/>
<path fill-rule="evenodd" clip-rule="evenodd" d="M11.0942 37.9399C9.3872 39.5874 8.7651 41.1457 9.16857 42.4364C9.43507 43.2889 10.1507 44.049 11.329 44.6746C12.5083 45.3006 14.1052 45.7652 16.0264 46.0327C19.8656 46.5673 24.8906 46.3004 30.18 45.0856C35.4693 43.8708 39.9768 41.9483 42.9898 39.84C44.4975 38.7849 45.6095 37.6982 46.2656 36.6506C46.9211 35.6038 47.0975 34.6389 46.831 33.7864C46.5108 32.7623 45.5381 31.8685 43.9064 31.1893C42.2823 30.5132 40.0894 30.0889 37.5085 29.9654L37.4912 28.9863C40.1447 29.1132 42.4744 29.5512 44.2575 30.2935C46.0332 31.0326 47.3524 32.1129 47.8056 33.5626C48.1823 34.7677 47.8903 36.0114 47.1481 37.1966C46.4064 38.381 45.1912 39.5497 43.6245 40.646C40.4886 42.8404 35.8583 44.8044 30.4783 46.0401C25.0983 47.2757 19.9427 47.5592 15.9469 47.0028C13.9506 46.7248 12.2164 46.2334 10.8832 45.5256C9.54904 44.8173 8.57068 43.8654 8.19395 42.6602C7.62448 40.8386 8.57263 38.9392 10.3487 37.225C12.1461 35.4902 14.9017 33.8293 18.2746 32.4511L18.725 33.3575C15.4199 34.708 12.7798 36.3129 11.0942 37.9399Z" fill="#0045E6"/>
<path fill-rule="evenodd" clip-rule="evenodd" d="M44.9053 37.9402C43.2197 36.3133 40.5796 34.7083 37.2745 33.3578L37.7249 32.4514C41.0978 33.8297 43.8534 35.4905 45.6508 37.2253C47.4268 38.9395 48.3749 40.8388 47.8055 42.6605C47.4287 43.8656 46.4504 44.8176 45.1162 45.5259C43.783 46.2337 42.0488 46.7251 40.0525 47.003C36.0567 47.5595 30.9011 47.276 25.5211 46.0403C20.1411 44.8047 15.5108 42.8407 12.3749 40.6463C10.8082 39.55 9.59299 38.3812 8.85128 37.1968C8.10906 36.0116 7.81706 34.768 8.19379 33.5628C8.64697 32.1131 9.96627 31.0328 11.7419 30.2937C13.5251 29.5515 15.8548 29.1134 18.5084 28.9865L18.4911 29.9657C15.9101 30.0891 13.7171 30.5135 12.093 31.1895C10.4613 31.8687 9.48858 32.7625 9.16842 33.7867C8.90192 34.6392 9.07827 35.6041 9.73383 36.6509C10.3899 37.6985 11.5019 38.7852 13.0096 39.8403C16.0226 41.9486 20.5301 43.8711 25.8194 45.0859C31.1087 46.3007 36.1338 46.5676 39.973 46.033C41.8942 45.7654 43.4911 45.3009 44.6704 44.6748C45.8487 44.0492 46.5643 43.2892 46.8308 42.4367C47.2343 41.146 46.6122 39.5877 44.9053 37.9402Z" fill="#0045E6"/>
</svg>
