<svg width="56" height="56" viewBox="0 0 56 56" fill="none" xmlns="http://www.w3.org/2000/svg">
<path fill-rule="evenodd" clip-rule="evenodd" d="M8 10.5C8 9.11929 9.11929 8 10.5 8H44C45.3807 8 46.5 9.11929 46.5 10.5V18.5C46.5 19.8807 45.3807 21 44 21H42V20H44C44.8284 20 45.5 19.3284 45.5 18.5V10.5C45.5 9.67157 44.8284 9 44 9H10.5C9.67157 9 9 9.67157 9 10.5V18.5C9 19.3284 9.67157 20 10.5 20H25.5V21H10.5C9.11929 21 8 19.8807 8 18.5V10.5Z" fill="#0045E6"/>
<path fill-rule="evenodd" clip-rule="evenodd" d="M15 13H14C13.4477 13 13 13.4477 13 14V15C13 15.5523 13.4477 16 14 16H15C15.5523 16 16 15.5523 16 15V14C16 13.4477 15.5523 13 15 13ZM14 12C12.8954 12 12 12.8954 12 14V15C12 16.1046 12.8954 17 14 17H15C16.1046 17 17 16.1046 17 15V14C17 12.8954 16.1046 12 15 12H14Z" fill="#0045E6"/>
<path d="M24 13.5C24 13.2239 24.2239 13 24.5 13C24.7761 13 25 13.2239 25 13.5C25 13.7761 24.7761 14 24.5 14C24.2239 14 24 13.7761 24 13.5Z" fill="#0045E6"/>
<path d="M28 13.5C28 13.2239 28.2239 13 28.5 13C28.7761 13 29 13.2239 29 13.5C29 13.7761 28.7761 14 28.5 14C28.2239 14 28 13.7761 28 13.5Z" fill="#0045E6"/>
<path d="M32 13.5C32 13.2239 32.2239 13 32.5 13C32.7761 13 33 13.2239 33 13.5C33 13.7761 32.7761 14 32.5 14C32.2239 14 32 13.7761 32 13.5Z" fill="#0045E6"/>
<path d="M36 13.5C36 13.2239 36.2239 13 36.5 13C36.7761 13 37 13.2239 37 13.5C37 13.7761 36.7761 14 36.5 14C36.2239 14 36 13.7761 36 13.5Z" fill="#0045E6"/>
<path d="M40 13.5C40 13.2239 40.2239 13 40.5 13C40.7761 13 41 13.2239 41 13.5C41 13.7761 40.7761 14 40.5 14C40.2239 14 40 13.7761 40 13.5Z" fill="#0045E6"/>
<path d="M26 15.5C26 15.2239 26.2239 15 26.5 15C26.7761 15 27 15.2239 27 15.5C27 15.7761 26.7761 16 26.5 16C26.2239 16 26 15.7761 26 15.5Z" fill="#0045E6"/>
<path d="M30 15.5C30 15.2239 30.2239 15 30.5 15C30.7761 15 31 15.2239 31 15.5C31 15.7761 30.7761 16 30.5 16C30.2239 16 30 15.7761 30 15.5Z" fill="#0045E6"/>
<path d="M34 15.5C34 15.2239 34.2239 15 34.5 15C34.7761 15 35 15.2239 35 15.5C35 15.7761 34.7761 16 34.5 16C34.2239 16 34 15.7761 34 15.5Z" fill="#0045E6"/>
<path d="M38 15.5C38 15.2239 38.2239 15 38.5 15C38.7761 15 39 15.2239 39 15.5C39 15.7761 38.7761 16 38.5 16C38.2239 16 38 15.7761 38 15.5Z" fill="#0045E6"/>
<path d="M42 15.5C42 15.2239 42.2239 15 42.5 15C42.7761 15 43 15.2239 43 15.5C43 15.7761 42.7761 16 42.5 16C42.2239 16 42 15.7761 42 15.5Z" fill="#0045E6"/>
<path fill-rule="evenodd" clip-rule="evenodd" d="M15 25H14C13.4477 25 13 25.4477 13 26V27C13 27.5523 13.4477 28 14 28H15C15.5523 28 16 27.5523 16 27V26C16 25.4477 15.5523 25 15 25ZM14 24C12.8954 24 12 24.8954 12 26V27C12 28.1046 12.8954 29 14 29H15C16.1046 29 17 28.1046 17 27V26C17 24.8954 16.1046 24 15 24H14Z" fill="#0045E6"/>
<path fill-rule="evenodd" clip-rule="evenodd" d="M15 37H14C13.4477 37 13 37.4477 13 38V39C13 39.5523 13.4477 40 14 40H15C15.5523 40 16 39.5523 16 39V38C16 37.4477 15.5523 37 15 37ZM14 36C12.8954 36 12 36.8954 12 38V39C12 40.1046 12.8954 41 14 41H15C16.1046 41 17 40.1046 17 39V38C17 36.8954 16.1046 36 15 36H14Z" fill="#0045E6"/>
<path fill-rule="evenodd" clip-rule="evenodd" d="M10.5 21C9.67157 21 9 21.6716 9 22.5V30.5C9 31.3284 9.67157 32 10.5 32H22.5V33H10.5C9.11929 33 8 31.8807 8 30.5V22.5C8 21.1193 9.11929 20 10.5 20H27V21H10.5Z" fill="#0045E6"/>
<path fill-rule="evenodd" clip-rule="evenodd" d="M10.5 33C9.67157 33 9 33.6716 9 34.5V43C9 43.8284 9.67157 44.5 10.5 44.5H25V45.5H10.5C9.11929 45.5 8 44.3807 8 43V34.5C8 33.1193 9.11929 32 10.5 32H22.5V33H10.5Z" fill="#0045E6"/>
<path fill-rule="evenodd" clip-rule="evenodd" d="M45.3306 25.2197C45.8385 24.7393 46 24.3268 46 24C46 23.6732 45.8385 23.2607 45.3306 22.7803C44.8205 22.2979 44.0287 21.8175 42.9674 21.3929C40.8504 20.5461 37.8571 20 34.5 20C31.1429 20 28.1496 20.5461 26.0326 21.3929C24.9713 21.8175 24.1795 22.2979 23.6694 22.7803C23.1615 23.2607 23 23.6732 23 24C23 24.3268 23.1615 24.7393 23.6694 25.2197C24.1795 25.7021 24.9713 26.1825 26.0326 26.6071C28.1496 27.4539 31.1429 28 34.5 28C37.8571 28 40.8504 27.4539 42.9674 26.6071C44.0287 26.1825 44.8205 25.7021 45.3306 25.2197ZM34.5 29C41.4036 29 47 26.7614 47 24C47 21.2386 41.4036 19 34.5 19C27.5964 19 22 21.2386 22 24C22 26.7614 27.5964 29 34.5 29Z" fill="#0045E6"/>
<path fill-rule="evenodd" clip-rule="evenodd" d="M26.308 33.0729C28.4427 33.9485 31.3762 34.5 34.5 34.5C37.6238 34.5 40.5573 33.9485 42.692 33.0729C43.7607 32.6346 44.6048 32.125 45.1735 31.584C45.742 31.0432 46 30.5077 46 30H47C47 30.873 46.5519 31.6529 45.8628 32.3085C45.1739 32.9638 44.2089 33.5316 43.0715 33.9981C40.794 34.9322 37.7275 35.5 34.5 35.5C31.2725 35.5 28.206 34.9322 25.9285 33.9981C24.7911 33.5316 23.8261 32.9638 23.1372 32.3085C22.4481 31.6529 22 30.873 22 30H23C23 30.5077 23.258 31.0432 23.8265 31.584C24.3953 32.125 25.2393 32.6346 26.308 33.0729Z" fill="#0045E6"/>
<path fill-rule="evenodd" clip-rule="evenodd" d="M26.308 39.0729C28.4427 39.9485 31.3762 40.5 34.5 40.5C37.6238 40.5 40.5573 39.9485 42.692 39.0729C43.7607 38.6346 44.6048 38.125 45.1735 37.584C45.742 37.0432 46 36.5077 46 36H47C47 36.873 46.5519 37.6529 45.8628 38.3085C45.1739 38.9638 44.2089 39.5316 43.0715 39.9981C40.794 40.9322 37.7275 41.5 34.5 41.5C31.2725 41.5 28.206 40.9322 25.9285 39.9981C24.7911 39.5316 23.8261 38.9638 23.1372 38.3085C22.4481 37.6529 22 36.873 22 36H23C23 36.5077 23.258 37.0432 23.8265 37.584C24.3953 38.125 25.2393 38.6346 26.308 39.0729Z" fill="#0045E6"/>
<path fill-rule="evenodd" clip-rule="evenodd" d="M26.308 45.0729C28.4427 45.9485 31.3762 46.5 34.5 46.5C37.6238 46.5 40.5573 45.9485 42.692 45.0729C43.7607 44.6346 44.6048 44.125 45.1735 43.584C45.742 43.0432 46 42.5077 46 42H47C47 42.873 46.5519 43.6529 45.8628 44.3085C45.1739 44.9638 44.2089 45.5316 43.0715 45.9981C40.794 46.9322 37.7275 47.5 34.5 47.5C31.2725 47.5 28.206 46.9322 25.9285 45.9981C24.7911 45.5316 23.8261 44.9638 23.1372 44.3085C22.4481 43.6529 22 42.873 22 42H23C23 42.5077 23.258 43.0432 23.8265 43.584C24.3953 44.125 25.2393 44.6346 26.308 45.0729Z" fill="#0045E6"/>
<path fill-rule="evenodd" clip-rule="evenodd" d="M22 42V24H23V42H22Z" fill="#0045E6"/>
<path fill-rule="evenodd" clip-rule="evenodd" d="M46 42V24H47V42H46Z" fill="#0045E6"/>
</svg>
